Patient4_TMGait_0pt4_03_left_32_EMG.mot
version=1
nRows=13
nColumns=33
inDegrees=no
endheader
time	1LAddLong	2LGlutMax	3LGlutMed	4LIliopsoas	5LSemiMemb	6LBicFemLong	7LRecFem	8LVastMed	9LVastLat	10LGasMed	11LTibAnt	12lTibPost	13LPeroneusLong	14LSol	15LExtDigLong	16LFlexDigLong	17RAddLong	18RGlutMax	19RGlutMed	20RIliopsoas	21RSemiMemb	22RBicFemLong	23RRecFem	24RVastMed	25RVastLat	26RGasMed	27RTibAnt	28RTibPost	29RPeroneusLong	30RSol	31RExtDigLong	32RFlexDigLong
43.628	0.006561	-0.001221	0.11627	0.00885	-0.010223	-0.011292	-0.032196	0.002747	0.086212	0.009308	0.02243	0.003204	0.007019	-0.11871	-0.083618	0.008698	-0.012207	0.011292	0.26642	0.022583	-0.02594	0.11032	0.022125	-0.053253	0.024567	-0.036621	0.046234	-0.002594	-0.14755	-0.29388	-0.00412	-0.006561
43.629	0.001831	0.006256	0.068512	0.00351	-0.035706	-0.053253	-0.019836	-0.002289	0.097351	0.003815	0.011902	-0.005646	0.000305	-0.097046	0.19516	0.01236	0.000153	0.059204	0.65582	-0.050964	-0.06897	0.048981	0.024414	-0.065765	0.010834	-0.021667	0.012512	-0.013733	-0.24674	-0.032043	-0.005951	-0.005493
43.63	0.008545	0.01236	0.038147	0.013123	-0.011597	-0.061951	-0.023193	-0.000458	0.088501	0.006256	-0.003662	0.010071	0.000305	-0.056458	0.74356	-0.002441	0.009918	0.055847	0.77057	-0.029449	0.047302	0.001221	-0.026855	-0.045471	0.014648	0.038757	-0.037994	-0.076752	-0.065918	-0.070343	-0.003052	-0.000458
43.631	0.002899	0.009308	0.007019	0.004272	0.030823	-0.043335	-0.008698	0.005646	0.1001	-0.018005	0.023041	0.010223	-0.00061	-0.06073	-0.13382	-0.005035	-0.006866	0.010376	-0.1828	-0.025177	-0.005646	0.022888	-0.000916	-0.055542	-0.008698	0.056763	-0.035858	-0.32074	0.036011	-0.10544	-0.002289	0.005493
43.632	-0.001373	0.006256	0.007172	0.016022	0.016937	-0.013428	-0.028992	0.003052	0.10284	-0.016327	0.018616	0.004578	-0.005493	-0.043182	-0.33081	-0.011444	-0.020905	0.032043	-0.41061	-0.047455	-0.089874	0.003204	0.062256	0.004883	-0.018311	0.020142	0.010986	0.3096	-0.13062	-0.042114	-0.004425	-0.007019
43.633	0.002136	0.015106	-0.00824	0.009613	0.003662	-0.017395	-0.01709	0.007935	0.10559	-0.01358	0.007172	0.001373	-0.015564	-0.040588	-0.19257	-0.005951	-0.013123	0.076904	0.60394	-0.072327	-0.037231	-0.01709	0.088043	-0.017853	-0.046844	-0.004425	0.014954	0.12665	-0.21439	0.19562	-0.00351	0.000153
43.634	-0.005646	0.019073	-0.023193	0.013123	-0.010223	-0.022888	-0.012207	0.003052	0.09964	-0.013428	-0.002136	0.001831	-0.00351	-0.047455	-0.16647	-0.011749	0.002136	0.037231	0.52277	-0.13596	-0.058899	-0.032959	0.19638	-0.034027	-0.12695	0.013428	0.026093	0.023651	-0.11948	0.34637	-0.009155	-0.001526
43.635	0.008698	0.005951	-0.026398	0.005188	-0.0177	-0.017548	-0.013123	-0.000763	0.10391	-0.018158	-0.009308	0.019073	-0.001831	-0.054321	-0.081177	-0.014191	-0.012207	0.019836	0.18692	-0.32074	-0.051422	0.015106	0.1358	0.029602	-0.066376	-0.001068	0.021057	0.002747	-0.10696	0.20569	-0.001984	-0.001526
43.636	0.011139	0.006714	-0.00824	-0.00061	-0.029907	0.006409	-0.008392	0.001221	0.096893	-0.011749	0	-0.005951	0.013733	-0.063019	-0.021057	-0.001526	-0.002289	-0.038757	-0.057678	-0.18158	-0.032806	0.022125	0.18249	0.069427	-0.054321	0.000153	-0.00885	0.020905	-0.042419	0.07309	-0.004425	-0.005646
43.637	0.001526	0.015564	0.02594	-0.004425	-0.012512	-0.010681	0.00061	0.003662	0.10681	-0.010529	0.009766	0.00824	-0.026703	-0.055542	0.01709	-0.013428	-0.007629	-0.038452	-0.042572	-0.030975	-0.002136	0.027008	0.25803	0.1442	-0.040131	0.013733	-0.029755	0.036469	0.08667	0.1738	0.006104	-0.009613
43.638	0.01709	0.044403	-0.023804	0.003204	0.037689	-0.023956	-0.007019	0.000916	0.1091	-0.011902	0.018921	0.011749	-0.044861	-0.063477	0.05188	-0.00946	0.002594	0.075073	-0.27023	0.063629	0.012512	0.039063	0.25879	0.095978	0.092926	0.015869	0.006866	0.058136	-0.029449	0.26672	-0.005798	-0.003662
43.639	0.009308	0.033264	-0.057373	0.007019	0.03479	-0.034943	0.000916	0.005951	0.1004	-0.021362	0.021515	0.002899	-0.019379	-0.046082	0.066833	-0.003052	0.000916	0.001678	-0.044098	0.066376	-0.006714	0.038147	0.10712	0.036774	0.14801	0.025787	-0.001678	-0.19287	-0.10269	0.37552	-0.001221	-0.012817
43.64	0.018005	0.0354	-0.076904	-0.005493	0.042725	-0.043335	0.009003	-0.004883	0.1059	-0.021515	0.00946	0.00824	-0.016022	-0.061188	0.054321	0.000305	0.005798	-0.033417	0.34515	0.020447	0.021515	0.045929	-0.19852	-0.022125	0.14999	0.01709	-0.00061	-0.21561	0.090942	0.32776	-0.002136	-0.002899
